<?xml version="1.0" standalone="no"?>
<!DOCTYPE svg PUBLIC "-//W3C//DTD SVG 20010904//EN"
 "http://www.w3.org/TR/2001/REC-SVG-20010904/DTD/svg10.dtd">
<svg version="1.0" xmlns="http://www.w3.org/2000/svg"
 width="1134.000000pt" height="425.000000pt" viewBox="0 0 1134.000000 425.000000"
 preserveAspectRatio="xMidYMid meet">

<g transform="translate(0.000000,425.000000) scale(0.100000,-0.100000)"
fill="#000000" stroke="none">
<path d="M1376 3188 c-268 -350 -315 -415 -311 -426 12 -32 478 -633 485 -625
5 4 134 173 287 375 153 201 339 446 413 544 74 97 139 183 143 191 7 11 -75
13 -477 13 l-485 0 -55 -72z"/>
<path d="M8891 3230 c14 -19 191 -253 393 -520 203 -267 396 -522 430 -568 33
-46 123 -165 199 -265 76 -100 168 -222 205 -271 37 -49 74 -97 82 -107 14
-18 28 -1 224 258 115 152 216 294 224 315 12 31 13 46 3 77 -9 30 -215 316
-324 451 -7 8 -58 76 -114 150 -56 74 -131 173 -167 220 -36 47 -96 127 -133
177 l-68 93 -475 0 c-367 0 -479 3 -490 13 -8 6 -3 -4 11 -23z"/>
<path d="M8470 3113 c-58 -30 -83 -94 -88 -230 l-5 -113 -58 0 -59 0 0 -35 0
-35 60 0 60 0 0 -385 0 -385 45 0 45 0 2 383 3 382 83 3 82 3 0 34 0 34 -82 3
-83 3 3 99 c2 61 9 110 17 127 17 33 72 53 116 44 l30 -7 -3 44 -3 43 -65 3
c-47 2 -75 -3 -100 -15z"/>
<path d="M6440 2520 l0 -590 45 0 45 0 0 75 0 75 63 -64 c54 -55 72 -67 131
-85 161 -50 320 -4 413 118 51 67 77 165 77 296 0 216 -72 354 -223 423 -47
22 -70 26 -146 26 -117 0 -189 -27 -257 -95 -27 -27 -51 -49 -53 -49 -3 0 -5
104 -5 230 l0 230 -45 0 -45 0 0 -590z m505 166 c120 -55 188 -209 171 -388
-18 -191 -126 -303 -291 -302 -120 1 -198 54 -254 174 -24 50 -26 66 -26 180
0 117 2 129 29 187 31 67 94 135 149 158 53 23 164 19 222 -9z"/>
<path d="M5108 2893 l-3 -118 -57 -3 -58 -3 0 -34 0 -34 58 -3 57 -3 5 -355
c6 -398 5 -397 76 -420 36 -12 141 -9 163 5 6 3 11 22 11 41 l0 35 -49 -7
c-48 -6 -87 5 -103 30 -4 6 -8 161 -8 344 l0 332 80 0 80 0 0 35 0 35 -80 0
-80 0 0 120 0 120 -45 0 -44 0 -3 -117z"/>
<path d="M2929 2786 c-66 -18 -132 -59 -178 -113 l-41 -48 0 73 0 72 -45 0
-45 0 0 -585 0 -585 45 0 45 0 0 230 c0 127 2 230 5 230 2 0 23 -20 45 -44 24
-25 66 -55 103 -72 55 -25 73 -29 162 -29 89 0 106 3 156 28 162 79 246 292
207 522 -19 109 -49 176 -104 232 -52 52 -103 78 -179 92 -73 14 -117 13 -176
-3z m196 -100 c132 -61 198 -226 166 -412 -17 -97 -46 -157 -100 -207 -57 -54
-105 -71 -191 -71 -122 0 -215 76 -261 213 -18 54 -21 79 -17 170 8 161 56
253 160 305 71 35 171 36 243 2z"/>
<path d="M3903 2790 c-79 -16 -131 -57 -171 -135 l-21 -40 -1 78 0 77 -45 0
-45 0 0 -420 0 -420 45 0 45 0 0 253 c0 270 8 335 52 405 26 42 98 90 147 97
85 14 81 11 81 65 0 56 -1 56 -87 40z"/>
<path d="M4404 2790 c-139 -29 -250 -147 -284 -300 -19 -87 -9 -271 19 -343
32 -81 113 -166 193 -203 55 -25 75 -28 158 -29 125 0 182 20 258 90 63 58
105 132 123 216 15 71 6 271 -15 329 -38 104 -124 192 -218 226 -53 18 -179
26 -234 14z m211 -99 c55 -25 103 -75 134 -141 24 -51 26 -66 26 -190 0 -128
-2 -138 -29 -197 -33 -72 -94 -134 -152 -154 -56 -19 -151 -17 -206 4 -70 27
-133 101 -159 189 -31 102 -25 259 14 343 35 75 69 111 132 141 64 31 179 33
240 5z"/>
<path d="M5764 2790 c-139 -29 -250 -147 -284 -300 -19 -87 -9 -271 19 -343
32 -81 113 -166 193 -203 55 -25 75 -28 158 -29 125 0 182 20 258 90 63 58
105 132 123 216 15 71 6 271 -15 329 -38 104 -124 192 -218 226 -53 18 -179
26 -234 14z m211 -99 c55 -25 103 -75 134 -141 24 -51 26 -66 26 -190 0 -128
-2 -138 -29 -197 -33 -72 -94 -134 -152 -154 -56 -19 -151 -17 -206 4 -70 27
-133 101 -159 189 -31 102 -25 259 14 343 35 75 69 111 132 141 64 31 179 33
240 5z"/>
<path d="M7430 2463 c0 -365 6 -398 79 -474 58 -60 130 -84 235 -77 86 6 149
32 209 87 24 23 47 41 51 41 3 0 6 -25 6 -55 l0 -55 45 0 45 0 0 420 0 420
-44 0 -44 0 -4 -267 c-4 -242 -7 -274 -26 -328 -45 -122 -124 -180 -247 -180
-96 1 -150 30 -185 100 -25 50 -25 52 -28 363 l-3 312 -45 0 -44 0 0 -307z"/>
<path d="M1027 2708 c-15 -18 -37 -47 -49 -64 -24 -32 -98 -130 -256 -337 -97
-127 -118 -169 -108 -222 5 -22 118 -180 362 -501 196 -258 377 -497 402 -531
l47 -62 485 0 c383 0 482 2 470 12 -9 7 -83 102 -165 212 -82 110 -152 202
-155 205 -3 3 -33 41 -65 85 -33 44 -62 82 -65 85 -4 3 -48 61 -100 130 -51
69 -97 127 -102 128 -4 2 -8 10 -8 17 0 7 -3 15 -8 17 -7 3 -24 25 -222 287
-53 69 -147 194 -210 276 -63 83 -136 179 -163 215 -27 36 -52 69 -57 73 -4 4
-19 -7 -33 -25z"/>
<path d="M4210 1285 c0 -122 2 -145 15 -145 12 0 15 14 15 65 l0 65 69 0 c63
0 71 2 90 26 28 36 27 79 -4 109 -22 22 -32 25 -105 25 l-80 0 0 -145z m157
107 c19 -12 25 -55 10 -76 -11 -15 -30 -21 -76 -24 l-61 -4 0 56 0 56 58 0
c31 0 62 -4 69 -8z"/>
<path d="M5610 1285 c0 -122 2 -145 15 -145 13 0 15 23 15 145 0 122 -2 145
-15 145 -13 0 -15 -23 -15 -145z"/>
<path d="M5820 1285 l0 -145 64 0 c34 0 77 5 95 11 59 21 76 100 29 134 -19
13 -19 15 -4 30 9 9 16 32 16 50 0 50 -28 65 -122 65 l-78 0 0 -145z m158 103
c7 -7 12 -21 12 -33 0 -34 -20 -45 -82 -45 l-58 0 0 45 0 45 58 0 c32 0 63 -5
70 -12z m3 -118 c23 -13 26 -62 3 -84 -10 -11 -34 -16 -75 -16 l-59 0 0 55 0
55 56 0 c30 0 64 -5 75 -10z"/>
<path d="M6327 1423 c-4 -3 -7 -21 -7 -40 0 -23 -5 -33 -15 -33 -8 0 -15 -4
-15 -9 0 -5 7 -11 15 -15 12 -4 15 -25 15 -96 0 -53 4 -90 10 -90 6 0 10 37
10 91 0 82 2 91 20 96 11 3 20 9 20 14 0 5 -9 9 -20 9 -11 0 -20 6 -20 14 0
25 12 46 26 46 8 0 14 5 14 10 0 11 -43 14 -53 3z"/>
<path d="M6437 1423 c-4 -3 -7 -21 -7 -40 0 -23 -5 -33 -15 -33 -8 0 -15 -4
-15 -9 0 -5 7 -11 15 -15 12 -4 15 -25 15 -96 0 -53 4 -90 10 -90 6 0 10 37
10 91 0 82 2 91 20 96 11 3 20 9 20 14 0 5 -9 9 -20 9 -11 0 -20 6 -20 14 0
25 12 46 26 46 8 0 14 5 14 10 0 11 -43 14 -53 3z"/>
<path d="M4840 1380 c0 -20 -5 -30 -15 -30 -8 0 -15 -4 -15 -10 0 -5 7 -10 15
-10 12 0 15 -17 15 -90 0 -88 1 -90 25 -96 35 -9 44 3 17 22 -19 13 -22 24
-22 90 0 67 2 74 20 74 11 0 20 5 20 10 0 6 -9 10 -20 10 -16 0 -20 7 -20 30
0 17 -4 30 -10 30 -5 0 -10 -13 -10 -30z"/>
<path d="M4526 1339 c-21 -17 -26 -18 -26 -5 0 9 -7 16 -15 16 -12 0 -15 -18
-15 -105 0 -87 3 -105 15 -105 12 0 15 15 15 71 0 81 9 104 45 113 14 4 25 13
25 21 0 20 -13 19 -44 -6z"/>
<path d="M4629 1331 c-25 -26 -29 -37 -29 -86 0 -46 4 -60 25 -80 28 -29 88
-34 122 -10 54 38 49 161 -7 190 -44 23 -78 19 -111 -14z m102 -10 c18 -15 23
-28 23 -69 0 -60 -23 -92 -65 -92 -38 0 -59 33 -59 91 0 39 5 51 26 68 33 26
45 26 75 2z"/>
<path d="M4969 1331 c-25 -26 -29 -37 -29 -86 0 -46 4 -60 25 -80 28 -29 88
-34 122 -10 54 38 49 161 -7 190 -44 23 -78 19 -111 -14z m102 -10 c18 -15 23
-28 23 -69 0 -60 -23 -92 -65 -92 -38 0 -59 33 -59 91 0 39 5 51 26 68 33 26
45 26 75 2z"/>
<path d="M5189 1331 c-25 -26 -29 -37 -29 -86 0 -46 4 -60 25 -80 35 -36 96
-35 124 1 12 15 21 31 21 35 0 17 -22 9 -42 -16 -23 -29 -58 -32 -81 -7 -25
28 -23 116 3 142 26 26 46 25 76 -5 14 -14 29 -25 34 -25 17 0 11 20 -15 45
-34 35 -78 33 -116 -4z"/>
<path d="M5399 1331 c-25 -26 -29 -37 -29 -86 0 -46 4 -60 25 -80 28 -29 88
-34 122 -10 54 38 49 161 -7 190 -44 23 -78 19 -111 -14z m102 -10 c18 -15 23
-28 23 -69 0 -60 -23 -92 -65 -92 -38 0 -59 33 -59 91 0 39 5 51 26 68 33 26
45 26 75 2z"/>
<path d="M6584 1350 c-72 -29 -87 -149 -25 -197 25 -20 85 -15 115 8 26 21 34
39 16 39 -5 0 -19 -9 -30 -20 -40 -40 -110 -13 -110 42 0 16 10 18 80 18 44 0
80 3 80 8 0 4 -5 24 -11 45 -8 30 -18 42 -44 53 -39 16 -42 16 -71 4z m74 -32
c5 -7 13 -23 16 -35 7 -22 5 -23 -58 -23 -55 0 -66 3 -66 17 0 43 81 73 108
41z"/>
<path d="M6816 1339 c-21 -17 -26 -18 -26 -5 0 9 -7 16 -15 16 -12 0 -15 -18
-15 -105 0 -87 3 -105 15 -105 12 0 15 15 15 71 0 81 9 104 45 113 14 4 25 13
25 21 0 20 -13 19 -44 -6z"/>
<path d="M6916 1339 c-48 -37 -28 -80 47 -100 66 -17 80 -34 51 -63 -22 -23
-71 -20 -86 4 -15 23 -38 27 -38 7 0 -27 36 -47 83 -47 37 0 49 5 66 26 37 47
25 69 -50 93 -63 21 -83 45 -55 67 27 19 52 18 76 -6 29 -29 53 -25 32 6 -24
37 -87 43 -126 13z"/>
<path d="M6080 1267 c0 -101 14 -127 67 -127 20 0 45 7 55 17 17 15 18 15 18
0 0 -10 7 -17 15 -17 12 0 15 18 15 105 0 83 -3 105 -14 105 -10 0 -15 -20
-18 -81 -3 -86 -17 -109 -63 -109 -37 0 -45 19 -45 107 0 67 -3 83 -15 83 -12
0 -15 -16 -15 -83z"/>
</g>
</svg>
